<svg width="791" height="791" viewBox="0 0 791 791" fill="none" xmlns="http://www.w3.org/2000/svg">
<g opacity="0.85" clip-path="url(#clip0_12_3)">
<path d="M230.99 617.17C215.88 617.17 203.86 612.95 195.56 604.47C175.17 583.66 179.57 538.78 207.62 481.33C262.37 369.22 390.85 239.14 494.01 191.37C541.11 169.56 577.05 167.75 595.2 186.28C615.59 207.09 611.19 251.97 583.14 309.42C528.39 421.53 399.91 551.61 296.75 599.38C271.19 611.22 248.91 617.16 230.98 617.16L230.99 617.17ZM494.99 193.48C392.24 241.06 264.26 370.65 209.71 482.36C182.11 538.87 177.56 582.79 197.22 602.86C214.64 620.64 249.64 618.66 295.79 597.29C398.54 549.71 526.52 420.12 581.07 308.41C608.67 251.9 613.22 207.98 593.56 187.91C576.15 170.13 541.14 172.11 494.99 193.48Z" fill="#B51019"/>
<path d="M220.14 620.2C202.48 620.2 188.76 615.13 179.88 604.99C159.1 581.28 166.74 532.36 200.83 470.76C265.14 354.56 404.46 225.89 511.39 183.93C558.36 165.5 593.7 166.16 610.89 185.78C631.67 209.49 624.03 258.41 589.94 320.01C525.63 436.21 386.31 564.88 279.38 606.84C256.67 615.75 236.67 620.2 220.14 620.2ZM570.64 172.86C554.43 172.86 534.72 177.27 512.23 186.09C405.72 227.88 266.93 356.08 202.85 471.89C169.26 532.58 161.52 580.54 181.62 603.47C198.12 622.3 232.54 622.73 278.53 604.69C385.04 562.9 523.83 434.69 587.91 318.89C621.5 258.2 629.24 210.24 609.14 187.31C600.7 177.68 587.59 172.87 570.63 172.87L570.64 172.86Z" fill="#B51019"/>
<path d="M210.2 622.5C189.4 622.5 173.62 616.37 164.13 604.22C143.1 577.29 154.34 524.23 194.97 458.66C269.16 338.93 419.16 212.81 529.35 177.51C575.89 162.6 610.44 165.81 626.63 186.54C647.66 213.47 636.43 266.53 595.79 332.1C521.6 451.83 371.6 577.95 261.41 613.25C242.13 619.43 224.91 622.49 210.2 622.49V622.5ZM580.6 170.57C566.15 170.57 549.15 173.61 530.06 179.72C420.32 214.88 270.89 340.56 196.94 459.89C156.85 524.59 145.56 576.68 165.96 602.8C181.51 622.71 215.16 625.64 260.71 611.05C370.45 575.89 519.89 450.21 593.83 330.88C633.92 266.18 645.21 214.09 624.81 187.97C615.78 176.4 600.63 170.57 580.6 170.57Z" fill="#B51019"/>
<path d="M200.89 624.26C176.44 624.26 158.61 616.8 148.42 602.05C127.32 571.52 142.54 514.28 190.19 445.01C274.53 322.4 434.95 200.04 547.81 172.25C594.3 160.8 626.99 166.49 642.35 188.7C663.45 219.23 648.23 276.47 600.58 345.74C516.24 468.35 355.82 590.71 242.96 618.49C227.34 622.34 213.27 624.25 200.9 624.25L200.89 624.26ZM589.89 168.81C577.71 168.81 563.83 170.7 548.36 174.51C435.98 202.18 276.16 324.12 192.1 446.33C145.03 514.77 129.8 571.04 150.33 600.74C165.09 622.09 196.93 627.46 242.41 616.26C354.79 588.59 514.61 466.65 598.67 344.44C645.74 276 660.97 219.73 640.44 190.03C630.7 175.94 613.52 168.81 589.89 168.81Z" fill="#B51019"/>
<path d="M193.61 625.22C164.35 625.22 143.6 616.13 132.83 598.34C111.92 563.81 131.53 502.37 186.62 429.79C281.32 305.02 451.81 187.73 566.66 168.32C612.17 160.63 643.74 168.96 657.94 192.42C678.85 226.95 659.24 288.39 604.15 360.97C509.45 485.74 338.96 603.03 224.11 622.44C213.11 624.3 202.93 625.22 193.61 625.22ZM597.18 167.86C587.99 167.86 577.93 168.77 567.05 170.61C452.7 189.93 282.86 306.82 188.47 431.19C134.78 501.93 114.72 563.96 134.81 597.14C148.48 619.71 179.22 627.67 223.72 620.15C338.08 600.83 507.91 483.94 602.3 359.57C655.99 288.83 676.05 226.8 655.96 193.62C645.64 176.57 625.56 167.86 597.18 167.86Z" fill="#B51019"/>
<path d="M188.39 625.67C153.07 625.67 128.7 614.49 117.44 592.93C97.39 554.53 122.41 487.25 184.38 412.97C289.59 286.84 469.67 175.98 585.79 165.85C630.11 161.98 660.37 173.05 673.32 197.84C693.37 236.24 668.35 303.52 606.38 377.8C501.16 503.93 321.09 614.79 204.97 624.92C199.2 625.42 193.67 625.67 188.39 625.67ZM585.89 167L585.99 168.15C470.4 178.23 291.04 288.72 186.16 414.45C124.81 487.99 99.89 554.31 119.5 591.86C131.98 615.76 161.47 626.39 204.77 622.61C320.36 612.53 499.72 502.04 604.6 376.31C665.95 302.77 690.87 236.45 671.26 198.91C658.78 175.01 629.29 164.38 585.98 168.16L585.88 167.01L585.89 167Z" fill="#B51019"/>
<path d="M185.75 625.79H185.69C142.76 625.78 113.96 611.89 102.39 585.62C83.35 542.39 113.71 470.95 183.61 394.54C299.4 267.95 488.42 164.98 605 164.98H605.06C647.99 164.99 676.79 178.88 688.36 205.15C707.4 248.38 677.03 319.82 607.14 396.23C491.35 522.82 302.33 625.79 185.75 625.79ZM605.01 167.29C488.99 167.29 300.75 269.92 185.33 396.1C116.07 471.82 85.86 542.32 104.52 584.69C115.69 610.05 143.76 623.46 185.7 623.47H185.76C301.78 623.47 490.03 520.84 605.44 394.66C674.7 318.94 704.91 248.44 686.25 206.07C675.08 180.71 647.01 167.3 605.07 167.29H605.01Z" fill="#B51019"/>
<path d="M185.88 625.8C179.16 625.8 172.67 625.51 166.4 624.91C125 620.96 97.8201 604.12 87.8001 576.2C70.3801 527.68 106.52 452.28 184.45 374.51C310.86 248.37 508.2 154.78 624.35 165.85C665.75 169.8 692.93 186.64 702.95 214.56C720.36 263.08 684.23 338.48 606.3 416.25C486.71 535.58 303.63 625.79 185.88 625.8ZM604.8 167.28C487.64 167.28 305.31 257.21 186.1 376.16C108.81 453.28 72.8801 527.77 89.9901 575.42C99.6801 602.43 126.18 618.74 166.63 622.6C282.16 633.62 478.68 540.32 604.67 414.61C681.96 337.49 717.89 263 700.78 215.35C691.09 188.34 664.59 172.03 624.14 168.17C617.92 167.58 611.46 167.29 604.8 167.29V167.28Z" fill="#B51019"/>
<path d="M189.25 625.97C174.25 625.97 160.19 624.72 147.25 622.13C107.47 614.16 82.0901 594.19 73.8301 564.4C58.8101 510.17 101.13 431.11 187.04 352.92C323.97 228.31 528.75 145.64 643.5 168.65C683.28 176.62 708.66 196.59 716.92 226.38C731.94 280.61 689.62 359.67 603.71 437.86C482.21 548.43 307.3 625.97 189.25 625.98V625.97ZM601.36 167.11C483.92 167.11 309.71 244.42 188.6 354.64C103.35 432.23 61.2801 510.41 76.0601 563.78C84.0601 592.67 108.84 612.07 147.7 619.86C160.53 622.43 174.51 623.67 189.39 623.67C306.83 623.67 481.04 546.36 602.15 436.14C687.4 358.55 729.48 280.37 714.69 227C706.69 198.11 681.91 178.71 643.05 170.92C630.22 168.35 616.24 167.11 601.36 167.11Z" fill="#B51019"/>
<path d="M196.44 626.64C171.26 626.64 148.29 623.62 128.41 617.29C90.3099 605.15 66.8899 581.83 60.6799 549.86C48.9799 489.57 97.8899 407.3 191.5 329.77C338.79 207.8 550.01 137.68 662.35 173.48C700.45 185.62 723.87 208.94 730.08 240.91C741.78 301.2 692.87 383.47 599.26 461C478.04 561.38 313.51 626.64 196.44 626.65V626.64ZM594.16 166.41C477.7 166.41 313.82 231.49 192.98 331.56C100.03 408.54 51.4199 489.98 62.9499 549.42C68.9799 580.51 91.8599 603.22 129.1 615.09C240.78 650.67 451.02 580.75 597.77 459.22C690.72 382.24 739.33 300.8 727.79 241.36C721.76 210.27 698.88 187.56 661.64 175.7C641.92 169.42 619.12 166.42 594.15 166.42L594.16 166.41Z" fill="#B51019"/>
<path d="M207.92 628.25C170.4 628.25 136.94 622.47 110.06 610.26C73.65 593.73 52.41 566.73 48.63 532.2C41.36 465.67 97.19 380.78 197.97 305.13C355.34 187 571.9 131.09 680.72 180.49C717.13 197.02 738.37 224.02 742.15 258.55C749.42 325.08 693.59 409.97 592.81 485.62C474.32 574.57 322.27 628.24 207.92 628.24V628.25ZM582.72 164.77C468.96 164.77 317.49 218.3 199.36 306.98C99.24 382.14 43.75 466.24 50.94 531.95C54.62 565.63 75.4 591.98 111.02 608.15C219.15 657.25 434.66 601.45 591.42 483.77C691.54 408.61 747.03 324.51 739.84 258.8C736.16 225.12 715.38 198.77 679.76 182.6C653.11 170.5 619.93 164.77 582.72 164.77Z" fill="#B51019"/>
<path d="M223.89 631.31C171.71 631.31 125.99 621.53 92.3699 600.93C57.6599 579.65 38.8599 548.55 38.0199 510.99C36.3899 438.25 99.3899 351.55 206.54 279.07C373.63 166.05 594.27 126.02 698.39 189.84C733.1 211.12 751.89 242.22 752.74 279.78C754.37 352.52 691.37 439.22 584.22 511.7C471.07 588.24 333.34 631.31 223.89 631.31ZM566.8 161.71C457.89 161.71 320.66 204.67 207.84 280.99C101.34 353.03 38.7299 438.99 40.3399 510.94C41.1599 547.68 59.5699 578.11 93.5799 598.96C197 662.35 416.51 622.35 582.92 509.79C689.41 437.75 752.03 351.79 750.42 279.84C749.6 243.1 731.19 212.67 697.18 191.82C663.88 171.41 618.53 161.71 566.8 161.71Z" fill="#B51019"/>
<path d="M244.11 636.34C175.11 636.34 115.17 620.98 75.58 589.13C42.6 562.6 26.62 526.83 29.38 485.7C34.65 407.1 104.92 319.6 217.37 251.64C393.69 145.07 617.02 122.63 715.2 201.62C748.18 228.15 764.16 263.92 761.4 305.05C756.13 383.65 685.86 471.15 573.41 539.11C468.19 602.7 346.23 636.34 244.12 636.34H244.11ZM546.67 156.66C445.03 156.66 323.49 190.21 218.56 253.63C106.76 321.2 36.9 408.02 31.69 485.86C28.99 526.2 44.66 561.29 77.03 587.33C174.51 665.76 396.65 643.24 572.2 537.13C684 469.56 753.86 382.75 759.08 304.9C761.78 264.56 746.1 229.47 713.74 203.43C674.52 171.88 615.1 156.66 546.67 156.66Z" fill="#B51019"/>
<path d="M267.69 643.91C180.07 643.91 104.15 620.96 59.8701 574.78C28.7201 542.29 16.0701 501.19 23.2901 455.91C36.6401 372.19 114.11 285.11 230.53 222.99C415.5 124.29 639.96 121.15 730.89 215.99C762.04 248.48 774.69 289.58 767.47 334.86C754.12 418.58 676.65 505.66 560.23 567.78C465.33 618.42 360.02 643.91 267.69 643.91ZM523.16 149.11C431.22 149.11 326.26 174.53 231.62 225.04C115.84 286.82 38.8101 373.27 25.5801 456.28C18.4801 500.81 30.9201 541.23 61.5401 573.18C151.8 667.32 375.02 663.99 559.14 565.74C674.92 503.96 751.95 417.51 765.18 334.5C772.28 289.97 759.84 249.55 729.22 217.6C685.36 171.85 610.07 149.12 523.16 149.12V149.11Z" fill="#B51019"/>
<path d="M293.14 654.46C185.81 654.46 92.5399 621.37 45.4799 557.75C16.3799 518.41 7.7499 471.19 20.5199 421.21C42.9199 333.52 127.27 248.29 246.15 193.21C439.04 103.84 662.95 121.7 745.28 233.02C774.38 272.36 783.01 319.58 770.24 369.56C747.84 457.25 663.49 542.48 544.61 597.56C461.96 635.85 373.6 654.46 293.14 654.46ZM497.75 138.57C417.6 138.57 329.54 157.12 247.12 195.31C128.86 250.1 44.9899 334.76 22.7599 421.78C10.1699 471.06 18.6699 517.6 47.3399 556.37C129.05 666.85 351.68 684.39 543.63 595.46C661.89 540.67 745.76 456.01 767.99 368.99C780.58 319.71 772.08 273.17 743.41 234.4C696.79 171.36 604.26 138.57 497.75 138.57Z" fill="#B51019"/>
<path d="M318.58 668.37C191.25 668.37 79.99 621.98 32.65 537.96C5.99999 490.67 2.28999 436.52 21.91 381.38C53.96 291.29 144.58 209.44 264.32 162.43C464.3 83.92 685.82 124.47 758.13 252.81C784.78 300.1 788.49 354.25 768.87 409.39C736.82 499.48 646.2 581.33 526.46 628.34C457.4 655.45 385.75 668.36 318.58 668.37ZM472.31 124.68C405.4 124.68 334 137.55 265.15 164.58C146.03 211.35 55.91 292.68 24.08 382.15C4.68999 436.64 8.34999 490.13 34.66 536.82C106.43 664.19 326.66 704.28 525.6 626.18C644.72 579.41 734.85 498.08 766.67 408.61C786.06 354.12 782.4 300.63 756.09 253.94C709.16 170.65 598.74 124.68 472.3 124.68H472.31Z" fill="#B51019"/>
<path d="M342.16 685.82C195.2 685.82 66.2599 622.4 21.5899 515.34C-2.00011 458.83 0.319891 396.96 28.2699 336.43C70.1099 245.83 166.11 168.97 285.09 130.82C491.17 64.75 708.33 129.62 769.18 275.43C792.76 331.93 790.45 393.8 762.49 454.33C720.65 544.93 624.65 621.79 505.67 659.94C450.9 677.5 395.34 685.81 342.15 685.81L342.16 685.82ZM448.7 107.25C395.71 107.25 340.38 115.53 285.79 133.03C167.42 170.98 71.9399 247.38 30.3699 337.4C2.69989 397.33 0.389891 458.55 23.7199 514.44C68.0299 620.63 196.07 683.51 342.06 683.52C395.05 683.52 450.38 675.24 504.97 657.74C623.34 619.79 718.82 543.39 760.39 453.37C788.06 393.44 790.36 332.22 767.04 276.33C722.73 170.14 594.69 107.25 448.7 107.25Z" fill="#B51019"/>
<path d="M362.4 706.87C196.56 706.87 51.2999 622.17 12.5499 489.8C-7.09006 422.71 2.53994 352.46 40.4099 286.67C92.3999 196.32 190.14 127.76 308.55 98.57C519.63 46.54 730.33 137.34 778.23 300.97C797.87 368.06 788.24 438.3 750.37 504.1C698.38 594.45 600.64 663.01 482.22 692.2C441.9 702.14 401.56 706.87 362.39 706.87H362.4ZM428.42 86.21C389.41 86.21 349.28 90.91 309.1 100.82C191.29 129.86 94.0899 198.02 42.4099 287.82C4.86994 353.06 -4.69006 422.67 14.7699 489.15C53.2199 620.51 197.55 704.55 362.35 704.56C401.36 704.56 441.49 699.86 481.67 689.95C599.48 660.91 696.68 592.75 748.36 502.95C785.9 437.71 795.46 368.1 776 301.63C737.55 170.27 593.22 86.22 428.42 86.22V86.21Z" fill="#B51019"/>
<path d="M378.31 731.47C194.45 731.47 35.14 620.85 5.77004 461.31C-8.58996 383.33 10.27 302.14 58.88 232.68C119.49 146.06 220.04 85.26 334.74 65.85C549.57 29.5 751.56 147.76 785.01 329.45C799.37 407.43 780.51 488.62 731.91 558.07C671.3 644.69 570.75 705.49 456.05 724.9C429.87 729.33 403.85 731.46 378.33 731.46L378.31 731.47ZM412.47 61.61C387.06 61.61 361.19 63.73 335.12 68.14C221.03 87.44 121.04 147.9 60.78 234.01C12.53 302.96 -6.19996 383.53 8.05004 460.89C37.22 619.31 195.56 729.15 378.3 729.15C403.71 729.15 429.58 727.03 455.65 722.62C569.74 703.32 669.74 642.86 729.99 556.75C778.23 487.81 796.96 407.24 782.71 329.87C753.54 171.45 595.2 61.61 412.46 61.61H412.47Z" fill="#B51019"/>
<path d="M389.37 759.5C188.2 759.52 17.9701 618.06 1.50012 429.85C-15.9799 229.98 146.49 51.92 363.67 32.92C468.86 23.72 571.06 52.76 651.43 114.68C731.84 176.63 780.78 264.08 789.25 360.92C797.72 457.75 764.7 552.37 696.28 627.35C627.88 702.3 532.28 748.64 427.09 757.84C414.43 758.95 401.82 759.49 389.37 759.49V759.5ZM401.8 33.57C389.22 33.57 376.57 34.12 363.87 35.23C147.96 54.12 -13.5599 231.05 3.81012 429.64C20.1701 616.63 189.42 757.17 389.37 757.18C401.77 757.18 414.27 756.64 426.89 755.54C531.5 746.39 626.56 700.31 694.57 625.79C762.55 551.3 795.36 457.31 786.95 361.13C778.53 264.95 729.91 178.08 650.02 116.53C579.81 62.43 492.83 33.58 401.8 33.58V33.57Z" fill="#B51019"/>
<path d="M395.38 790.77C177.37 790.77 0 613.4 0 395.38C0 177.36 177.37 0 395.38 0C613.39 0 790.76 177.37 790.76 395.38C790.76 613.39 613.39 790.76 395.38 790.76V790.77ZM395.38 2.32C178.65 2.32 2.32 178.65 2.32 395.38C2.32 612.11 178.65 788.45 395.38 788.45C612.11 788.45 788.45 612.12 788.45 395.38C788.45 178.64 612.12 2.32 395.38 2.32Z" fill="#B51019"/>
</g>
<defs>
<clipPath id="clip0_12_3">
<rect width="790.77" height="790.77" fill="white"/>
</clipPath>
</defs>
</svg>
