<svg width="1404" height="195" viewBox="0 0 1404 195" fill="none" xmlns="http://www.w3.org/2000/svg">
<path d="M1384.96 191.27L1359.12 141.777H1231.56L1205.72 191.27H1186.99L1285.29 3.41797H1305.39L1403.69 191.27H1384.96ZM1295.41 19.9609L1239.9 126.055H1350.78L1295.41 19.9609Z" fill="#FFF7E8"/>
<path d="M1132.58 191.27V100.215H964.277V191.27H947.188V3.41797H964.277V84.3555H1132.58V3.41797H1149.67V191.27H1132.58Z" fill="#FFF7E8"/>
<path d="M878.555 31.1719C875 29.4401 870.898 27.6172 866.25 25.7031C861.602 23.6979 856.27 21.9206 850.254 20.3711C844.329 18.8216 837.63 17.5456 830.156 16.543C822.682 15.4492 814.388 14.9023 805.273 14.9023C794.245 14.9023 784.401 15.5404 775.742 16.8164C767.174 18.0924 759.883 20.0977 753.867 22.832C747.943 25.4753 743.385 28.8477 740.195 32.9492C737.096 37.0508 735.547 41.9271 735.547 47.5781C735.547 52.3177 737.005 56.4648 739.922 60.0195C742.93 63.5742 746.94 66.7188 751.953 69.4531C757.057 72.1875 762.982 74.694 769.727 76.9727C776.562 79.1602 783.763 81.2565 791.328 83.2617C798.984 85.1758 806.823 87.1354 814.844 89.1406C822.956 91.1458 830.794 93.3333 838.359 95.7031C846.016 97.9818 853.216 100.579 859.961 103.496C866.797 106.322 872.721 109.648 877.734 113.477C882.839 117.305 886.849 121.68 889.766 126.602C892.773 131.523 894.277 137.22 894.277 143.691C894.277 150.71 892.956 156.862 890.312 162.148C887.669 167.344 884.069 171.855 879.512 175.684C875.046 179.421 869.759 182.565 863.652 185.117C857.637 187.578 851.165 189.538 844.238 190.996C837.402 192.454 830.293 193.457 822.91 194.004C815.618 194.642 808.418 194.961 801.309 194.961C784.993 194.961 770.182 193.776 756.875 191.406C743.659 189.036 731.035 185.801 719.004 181.699V160.781C731.4 168.164 744.479 173.223 758.242 175.957C772.096 178.691 786.634 180.059 801.855 180.059C812.611 180.059 822.546 179.421 831.66 178.145C840.775 176.868 848.659 174.863 855.312 172.129C861.966 169.303 867.116 165.658 870.762 161.191C874.499 156.725 876.367 151.257 876.367 144.785C876.367 139.59 874.863 135.033 871.855 131.113C868.939 127.194 864.928 123.776 859.824 120.859C854.811 117.852 848.887 115.208 842.051 112.93C835.306 110.651 828.151 108.555 820.586 106.641C813.021 104.635 805.182 102.721 797.07 100.898C789.049 98.9844 781.257 96.9336 773.691 94.7461C766.126 92.5586 758.926 90.0977 752.09 87.3633C745.345 84.6289 739.421 81.4388 734.316 77.793C729.303 74.056 725.293 69.7721 722.285 64.9414C719.368 60.1107 717.91 54.5052 717.91 48.125C717.91 41.8359 719.095 36.276 721.465 31.4453C723.835 26.5234 727.07 22.2852 731.172 18.7305C735.365 15.1758 740.241 12.2135 745.801 9.84375C751.361 7.38281 757.285 5.46875 763.574 4.10156C769.954 2.64323 776.562 1.59505 783.398 0.957031C790.234 0.31901 796.979 0 803.633 0C810.924 0 817.806 0.31901 824.277 0.957031C830.84 1.59505 837.129 2.46094 843.145 3.55469C849.251 4.55729 855.176 5.74219 860.918 7.10938C866.751 8.47656 872.63 9.9349 878.555 11.4844V31.1719Z" fill="#FFF7E8"/>
<path d="M510.645 110.879V191.27H493.555V3.41797H587.07C601.38 3.41797 613.639 4.55729 623.848 6.83594C634.056 9.02344 642.396 12.3958 648.867 16.9531C655.43 21.4193 660.215 27.0247 663.223 33.7695C666.23 40.5143 667.734 48.3984 667.734 57.4219C667.734 71.4583 664.043 82.7148 656.66 91.1914C649.277 99.5768 637.383 105.319 620.977 108.418L685.098 191.27H663.633L603.066 110.332C600.514 110.514 597.917 110.651 595.273 110.742C592.63 110.833 589.896 110.879 587.07 110.879H510.645ZM650.098 57.4219C650.098 49.401 648.685 42.9297 645.859 38.0078C643.034 32.9948 638.431 29.1211 632.051 26.3867C625.671 23.6523 617.285 21.8294 606.895 20.918C596.595 19.9154 583.926 19.4141 568.887 19.4141H510.645V94.8828H568.34C583.379 94.8828 596.094 94.4727 606.484 93.6523C616.875 92.7409 625.306 90.9635 631.777 88.3203C638.249 85.5859 642.897 81.8034 645.723 76.9727C648.639 72.0508 650.098 65.5339 650.098 57.4219Z" fill="#FFF7E8"/>
<path d="M437.773 191.27L411.934 141.777H284.375L258.535 191.27H239.805L338.105 3.41797H358.203L456.504 191.27H437.773ZM348.223 19.9609L292.715 126.055H403.594L348.223 19.9609Z" fill="#FFF7E8"/>
<path d="M185.391 191.27V100.215H17.0898V191.27H0V3.41797H17.0898V84.3555H185.391V3.41797H202.48V191.27H185.391Z" fill="#FFF7E8"/>
</svg>
