<svg width="143" height="143" viewBox="0 0 143 143" fill="none" xmlns="http://www.w3.org/2000/svg">
<g opacity="0.85">
<path d="M77.7216 100.217C69.8701 100.217 61.4818 97.8815 54.089 93.1216C45.0714 87.3154 39.0839 78.929 37.6605 70.1109C36.6034 63.5704 38.1501 57.5049 42.1285 52.5673C51.7299 40.6539 72.7169 39.4463 88.9114 49.8745C97.929 55.6807 103.916 64.0672 105.34 72.8852C106.395 79.4258 104.85 85.4913 100.872 90.4289C95.6533 96.9041 87.0691 100.217 77.7216 100.217ZM65.2752 43.0366C56.0056 43.0366 47.5013 46.3169 42.3297 52.7305C38.3985 57.6082 36.8717 63.6048 37.9162 70.0692C39.3287 78.8129 45.2745 87.1359 54.2304 92.9022C70.3161 103.262 91.1509 102.077 100.672 90.2657C104.604 85.3879 106.131 79.3913 105.086 72.9269C103.673 64.1832 97.7277 55.8602 88.7718 50.094C81.4207 45.3594 73.076 43.0366 65.2752 43.0366Z" fill="#FFF7E8"/>
<path d="M75.1339 101.666C69.665 101.666 63.9803 100.544 58.5277 98.1757C48.9027 93.996 41.5244 86.576 38.2877 77.8196C35.7328 70.911 36.003 63.6596 39.0475 57.4019C46.2009 42.6979 66.5787 37.0568 84.4705 44.8267C94.0955 49.0064 101.474 56.4264 104.71 65.1828C107.265 72.0914 106.995 79.3428 103.951 85.6023C98.9769 95.8256 87.6111 101.668 75.1339 101.668V101.666ZM39.2905 57.5198C36.2786 63.7104 36.012 70.8874 38.5416 77.7271C41.7529 86.4146 49.0786 93.7784 58.6365 97.929C76.3977 105.643 96.6178 100.06 103.71 85.4826C106.721 79.292 106.988 72.115 104.458 65.2752C101.247 56.5878 93.9214 49.224 84.3635 45.0733C66.6023 37.3596 46.3823 42.9427 39.2905 57.5198Z" fill="#FFF7E8"/>
<path d="M73.0104 103.739C70.0022 103.739 66.9304 103.385 63.8533 102.645C54.0905 100.297 45.6587 94.2986 40.7193 86.1896C36.3909 79.0814 35.0509 70.9144 36.9476 63.1897C41.1635 46.016 60.0961 35.7709 79.1466 40.3531C88.9094 42.7013 97.3412 48.6997 102.281 56.8106C106.609 63.9187 107.949 72.0858 106.052 79.8104C102.516 94.2098 88.6338 103.739 73.0104 103.74V103.739ZM69.9895 39.5426C54.4912 39.5426 40.7265 48.9844 37.2214 63.2568C35.3429 70.9071 36.6702 78.998 40.9604 86.0427C45.8618 94.0901 54.2301 100.041 63.9186 102.371C82.8185 106.916 101.599 96.7647 105.778 79.7415C107.657 72.0912 106.33 64.0003 102.039 56.9556C97.1381 48.9082 88.7698 42.957 79.0813 40.6269C76.0277 39.8925 72.976 39.5426 69.9895 39.5426Z" fill="#FFF7E8"/>
<path d="M71.7159 106.355C71.123 106.355 70.5318 106.34 69.9352 106.311C50.3553 105.374 35.1291 88.9945 35.9904 69.7989C36.402 60.6309 40.3949 52.1501 47.2346 45.916C54.272 39.5024 63.4455 36.2258 73.0632 36.6845C92.6431 37.622 107.871 54.0015 107.008 73.197C106.596 82.3651 102.604 90.8458 95.7638 97.0799C89.1634 103.096 80.6808 106.353 71.7159 106.353V106.355ZM71.2843 36.9384C62.3919 36.9384 53.9801 40.1679 47.4341 46.1354C40.6524 52.3151 36.6939 60.7234 36.2859 69.8134C35.4301 88.8476 50.533 105.089 69.9516 106.018C79.4895 106.473 88.5886 103.223 95.568 96.8642C102.35 90.6845 106.308 82.2762 106.716 73.1862C107.572 54.152 92.469 37.9103 73.0505 36.9819C72.4594 36.9529 71.8718 36.9402 71.2843 36.9402V36.9384Z" fill="#FFF7E8"/>
<path d="M71.3532 109.376C64.1345 109.376 57.0916 107.037 51.0932 102.578C42.9842 96.5471 37.7347 87.4807 36.3131 77.0506C33.497 56.3954 46.9898 37.1019 66.3902 34.0393C75.395 32.6176 84.4579 34.8861 91.9051 40.4239C100.014 46.4549 105.264 55.5213 106.687 65.9514C109.503 86.6067 96.0104 105.9 76.6099 108.963C74.8565 109.24 73.0994 109.376 71.3532 109.376ZM71.6451 33.9323C69.9152 33.9323 68.1763 34.0683 66.4373 34.3421C47.2001 37.3775 33.8234 56.5168 36.6159 77.0089C38.0266 87.3574 43.2326 96.3513 51.2764 102.332C58.6583 107.82 67.6377 110.069 76.561 108.66C95.7982 105.624 109.175 86.4852 106.382 65.9931C104.972 55.6447 99.7657 46.6507 91.7219 40.6687C85.7779 36.2497 78.7967 33.9305 71.6451 33.9305V33.9323Z" fill="#FFF7E8"/>
<path d="M72.2379 112.593C67.5651 112.593 62.8831 111.53 58.4605 109.417C48.9498 104.872 41.4953 95.8667 38.0102 84.7132C31.3082 63.2655 40.8716 39.8867 59.3291 32.5973C67.5016 29.3696 76.4538 29.7196 84.5375 33.5837C94.0482 38.1296 101.503 47.1345 104.988 58.288C111.69 79.7357 102.126 103.114 83.6689 110.404C79.968 111.865 76.1057 112.594 72.2379 112.594V112.593ZM70.7601 30.726C66.9304 30.726 63.1098 31.4458 59.4469 32.8928C41.1417 40.1224 31.6618 63.3254 38.3148 84.6171C41.7746 95.6872 49.1674 104.621 58.5983 109.129C66.6004 112.953 75.4619 113.302 83.5511 110.107C101.856 102.877 111.336 79.674 104.683 58.3823C101.223 47.3122 93.8306 38.3781 84.3997 33.8702C80.0224 31.7777 75.3858 30.726 70.7601 30.726Z" fill="#FFF7E8"/>
<path d="M74.1113 115.802C71.6344 115.802 69.132 115.487 66.6424 114.847C56.1307 112.143 46.8357 104.012 41.1366 92.5361C30.469 71.0486 35.3957 44.1284 52.1197 32.5251C59.3094 27.5368 67.9153 25.9846 76.3544 28.1551C86.866 30.8587 96.161 38.9895 101.858 50.4659C112.526 71.9534 107.599 98.8736 90.8752 110.477C85.8071 113.995 80.0317 115.802 74.1077 115.802H74.1113ZM41.4358 92.3874C47.0914 103.777 56.3084 111.844 66.7258 114.524C75.0706 116.669 83.5803 115.135 90.6885 110.203C107.282 98.6904 112.161 71.9588 101.563 50.6145C95.9071 39.2252 86.6901 31.1561 76.2728 28.4779C67.9298 26.3327 59.4182 27.8668 52.3101 32.7989C35.7166 44.3115 30.8371 71.0431 41.4358 92.3874Z" fill="#FFF7E8"/>
<path d="M76.8457 118.809C76.2926 118.809 75.7378 118.792 75.1793 118.76C64.2777 118.118 53.534 111.365 45.7005 100.23C31.1325 79.5218 30.8315 49.7856 45.0314 33.941C51.0933 27.1756 59.186 23.7304 67.8227 24.2381C78.7243 24.88 89.468 31.6327 97.3014 42.7682C111.869 63.476 112.17 93.2122 97.9706 109.057C92.3004 115.385 84.8514 118.809 76.8457 118.809ZM66.1563 24.5373C58.2503 24.5373 50.892 27.9209 45.2889 34.1731C31.1924 49.9035 31.5043 79.4475 45.9834 100.03C53.7552 111.077 64.4029 117.777 75.1992 118.413C83.7235 118.914 91.7201 115.51 97.7113 108.826C111.808 93.0961 111.496 63.5521 97.0168 42.9694C89.245 31.9228 78.5973 25.2227 67.801 24.5863C67.2497 24.5536 66.7021 24.5373 66.1563 24.5373Z" fill="#FFF7E8"/>
<path d="M80.1495 121.44C70.4574 121.44 60.254 116.492 51.6445 107.496C33.3973 88.4272 27.428 56.7707 38.3404 36.926C43.0767 28.3129 50.5021 22.9383 59.2495 21.7923C69.9697 20.387 81.6708 25.3844 91.3538 35.5044C109.601 54.573 115.569 86.2295 104.658 106.074C99.9216 114.687 92.4962 120.062 83.7489 121.208C82.5594 121.364 81.3572 121.44 80.1495 121.44ZM62.8507 21.921C61.6557 21.921 60.4716 21.9972 59.2966 22.1513C50.6671 23.2828 43.3378 28.5921 38.6577 37.1001C27.8178 56.8142 33.76 88.2821 51.9074 107.244C61.5106 117.279 73.0994 122.236 83.7035 120.847C92.333 119.716 99.6624 114.406 104.342 105.898C115.182 86.1842 109.238 54.7162 91.0927 35.7546C82.5539 26.8314 72.4412 21.921 62.8507 21.921Z" fill="#FFF7E8"/>
<path d="M83.7996 123.565C75.7431 123.565 67.0212 120.28 58.8668 114.013C37.3194 97.4538 25.4206 64.9215 32.3437 41.4937C35.4553 30.9603 42.0122 23.5856 50.8067 20.7279C60.8922 17.4513 73.0377 20.4613 84.1314 28.9856C105.679 45.5446 117.578 78.0769 110.654 101.505C107.543 112.038 100.986 119.413 92.1915 122.271C89.5205 123.139 86.7026 123.565 83.7996 123.565ZM59.2004 19.8122C56.3354 19.8122 53.5593 20.2329 50.9245 21.0887C42.2516 23.9066 35.7817 31.1906 32.7064 41.6025C25.8249 64.8943 37.6639 97.2434 59.0989 113.715C70.0911 122.164 82.1114 125.152 92.0754 121.913C100.748 119.095 107.218 111.811 110.294 101.4C117.175 78.1078 105.336 45.7586 83.9011 29.2866C75.8156 23.0725 67.1717 19.8122 59.2004 19.8122Z" fill="#FFF7E8"/>
<path d="M87.3554 125.163C81.0288 125.163 74.1746 123.255 67.2024 119.469C42.8934 106.27 25.0053 74.0332 27.3299 47.6062C28.4252 35.1471 33.8378 25.7035 42.5725 21.0125C51.842 16.035 63.6411 16.9271 75.7975 23.5275C100.106 36.7265 117.993 68.9632 115.67 95.3902C114.575 107.849 109.162 117.293 100.427 121.984C96.4745 124.107 92.0609 125.163 87.3554 125.163ZM55.6445 18.2309C51.0025 18.2309 46.6542 19.2699 42.7592 21.3624C34.1461 25.9882 28.8059 35.3212 27.7216 47.6425C25.4096 73.928 43.2053 105.994 67.3892 119.124C79.4259 125.659 91.0908 126.552 100.239 121.639C108.852 117.014 114.192 107.681 115.275 95.3593C117.587 69.0738 99.791 37.0075 75.6071 23.8775C68.6948 20.124 61.904 18.2327 55.6427 18.2327L55.6445 18.2309Z" fill="#FFF7E8"/>
<path d="M90.6575 126.113C86.1841 126.113 81.3989 125.268 76.4268 123.563C50.0434 114.522 26.3346 83.8375 23.5747 55.1639C22.2039 40.9169 26.117 29.3861 34.5959 22.6915C42.6923 16.2996 54.0489 15.1409 66.5716 19.433C92.9532 28.474 116.664 59.1586 119.425 87.8322C120.796 102.079 116.883 113.61 108.404 120.305C103.521 124.16 97.452 126.111 90.6575 126.111V126.113ZM52.3444 17.2969C45.6389 17.2969 39.6586 19.2172 34.8498 23.0142C26.4832 29.6182 22.6246 41.0239 23.9827 55.1258C26.7299 83.6544 50.3154 114.183 76.5592 123.177C88.9458 127.422 100.165 126.289 108.149 119.986C116.513 113.382 120.374 101.976 119.016 87.8739C116.269 59.3454 92.683 28.8168 66.4374 19.8228C61.5125 18.1346 56.7689 17.2969 52.3426 17.2969H52.3444Z" fill="#FFF7E8"/>
<path d="M93.0671 126.548C90.873 126.548 88.6027 126.374 86.2672 126.02C58.6399 121.844 29.5093 94.0229 21.3277 64.002C17.1118 48.5328 19.1645 34.6393 26.958 25.8865C33.7433 18.2653 44.3185 15.1011 56.7323 16.9778C84.3596 21.1538 113.49 48.9752 121.672 78.9961C125.888 94.4653 123.835 108.359 116.043 117.112C110.536 123.299 102.529 126.548 93.0689 126.548H93.0671ZM49.9342 16.8781C40.5958 16.8781 32.7025 20.0786 27.2771 26.1712C19.5815 34.8152 17.5651 48.5636 21.7412 63.8895C29.881 93.7618 58.8575 121.444 86.3307 125.596C98.5976 127.449 109.037 124.336 115.722 116.825C123.418 108.181 125.434 94.4327 121.258 79.1067C113.118 49.2345 84.1439 21.5528 56.6688 17.4003C54.3551 17.0504 52.1048 16.8781 49.9342 16.8781Z" fill="#FFF7E8"/>
<path d="M94.226 126.65C66.7401 126.65 34.2114 103.448 20.8075 73.8953C13.3984 57.5576 13.0321 41.849 19.8048 30.7952C25.1594 22.0551 34.6756 16.9416 46.5998 16.3976C74.5173 15.1229 108.433 38.7664 122.192 69.1028C129.602 85.4406 129.968 101.149 123.197 112.203C117.842 120.943 108.326 126.057 96.4019 126.601C95.6802 126.633 94.9567 126.65 94.2278 126.65H94.226ZM96.3802 126.154C108.15 125.618 117.539 120.579 122.814 111.969C129.507 101.044 129.132 85.4877 121.784 69.286C108.094 39.1037 74.3813 15.578 46.6198 16.8437C34.8497 17.3804 25.4604 22.4196 20.1856 31.0291C13.4927 41.9542 13.868 57.5104 21.2155 73.7122C34.9059 103.896 68.6259 127.424 96.382 126.156L96.3802 126.154Z" fill="#FFF7E8"/>
<path d="M93.876 126.673C68.5679 126.673 38.6449 109.735 22.1856 84.5577C11.4509 68.1365 8.24499 51.0481 13.3893 37.675C17.2244 27.7055 25.2283 20.8603 36.5378 17.8847C63.7118 10.7313 101.519 28.9259 120.816 58.4445C131.551 74.8657 134.757 91.9542 129.612 105.329C125.777 115.299 117.773 122.144 106.464 125.119C102.467 126.171 98.2388 126.675 93.876 126.675V126.673ZM49.1438 16.7895C44.8137 16.7895 40.6195 17.29 36.6539 18.3326C25.4967 21.2701 17.5998 28.0156 13.8209 37.84C8.73095 51.0734 11.9205 68.0078 22.5718 84.3021C41.7674 113.665 79.3461 131.772 106.344 124.666C117.501 121.728 125.398 114.983 129.177 105.159C134.267 91.9251 131.078 74.9908 120.424 58.6965C104.049 33.6477 74.2924 16.7877 49.142 16.7877L49.1438 16.7895Z" fill="#FFF7E8"/>
<path d="M91.7651 126.945C69.1714 126.945 43.2341 115.407 25.569 95.646C11.6646 80.0915 5.29997 62.2832 8.10876 46.7904C10.1215 35.6858 16.6331 26.9602 26.938 21.5566C52.257 8.28327 92.8531 19.8575 117.434 47.3543C131.338 62.9106 137.703 80.7171 134.894 96.2117C132.882 107.316 126.37 116.042 116.065 121.446C108.942 125.179 100.61 126.947 91.7669 126.947L91.7651 126.945ZM51.2507 16.5319C42.4798 16.5319 34.222 18.2836 27.161 21.9845C16.9921 27.3156 10.5694 35.9215 8.58384 46.8756C5.80225 62.2215 12.1252 79.8794 25.9298 95.3232C43.5043 114.985 69.3002 126.468 91.7488 126.468C100.52 126.468 108.777 124.717 115.838 121.016C126.007 115.685 132.432 107.079 134.416 96.1247C137.197 80.7788 130.874 63.1209 117.07 47.6771C99.4951 28.0155 73.6992 16.5319 51.2507 16.5319Z" fill="#FFF7E8"/>
<path d="M87.8379 127.874C68.791 127.874 47.8203 120.651 31.0056 106.774C14.4122 93.0801 4.76908 75.4259 4.54786 58.3374C4.38829 46.056 9.11373 35.3811 18.211 27.4679C40.5399 8.0475 82.612 11.9769 111.995 36.2261C128.588 49.9201 138.231 67.5743 138.452 84.6628C138.612 96.9442 133.886 107.619 124.789 115.532C115.239 123.839 102.076 127.874 87.8379 127.874ZM55.1623 15.6234C41.0476 15.6234 28.0046 19.6199 18.5429 27.8487C9.5598 35.6603 4.89601 46.201 5.05195 58.3301C5.27136 75.2699 14.8474 92.7845 31.3266 106.384C60.5279 130.483 102.306 134.416 124.457 115.15C133.44 107.338 138.104 96.7974 137.948 84.6682C137.729 67.7284 128.153 50.2138 111.674 36.6141C94.946 22.8095 74.0913 15.6216 55.1641 15.6216L55.1623 15.6234Z" fill="#FFF7E8"/>
<path d="M82.7297 129.841C68.0602 129.841 52.5094 125.821 38.4654 117.521C19.9499 106.578 7.18427 90.0899 3.44345 72.2797C0.667294 59.0608 3.26937 46.0305 10.7728 35.5859C28.991 10.227 71.0521 5.69195 104.533 25.4786C123.048 36.4219 135.814 52.9119 139.555 70.7203C142.331 83.9392 139.729 96.9696 132.225 107.414C121.648 122.136 103.035 129.841 82.7297 129.841ZM60.2594 13.6813C40.1228 13.6813 21.6797 21.308 11.2007 35.8942C3.67736 46.366 1.1732 58.9103 3.95842 72.1728C7.66842 89.8379 20.3433 106.201 38.7338 117.07C52.698 125.322 68.1636 129.321 82.7388 129.321C102.875 129.321 121.318 121.694 131.797 107.108C139.321 96.6359 141.825 84.0915 139.04 70.8291C135.33 53.164 122.655 36.8008 104.264 25.9319C90.3021 17.6796 74.8365 13.6813 60.2594 13.6813Z" fill="#FFF7E8"/>
<path d="M77.6542 133.061C67.8479 133.061 57.7097 131.255 47.8436 127.442C28.3344 119.898 12.9159 105.591 5.54127 88.1875C-0.415397 74.1326 -0.59854 59.075 5.02267 45.7872C18.0693 14.9467 58.5022 1.38509 95.1561 15.5578C114.665 23.1011 130.084 37.408 137.458 54.812C143.413 68.8668 143.598 83.9244 137.977 97.2122C128.443 119.751 104.279 133.061 77.6542 133.061ZM65.3383 10.486C38.9313 10.486 14.9758 23.6687 5.52858 46.0012C-0.0346058 59.1512 0.15035 74.0565 6.04718 87.9735C13.3638 105.242 28.6717 119.44 48.0431 126.929C84.4232 140.994 124.541 127.567 137.473 96.9983C143.036 83.8483 142.851 68.9412 136.954 55.026C129.638 37.758 114.33 23.5599 94.9584 16.071C85.1558 12.2812 75.0793 10.486 65.3383 10.486Z" fill="#FFF7E8"/>
<path d="M73.7359 137.515C68.8708 137.515 63.9242 137.051 58.9467 136.082C40.2063 132.439 23.8921 122.299 13.0105 107.53C2.12168 92.7554 -2.02895 75.1138 1.32564 57.8585C8.2488 22.249 45.3597 -0.603908 84.0536 6.91764C122.747 14.4392 148.596 49.5301 141.675 85.1413C135.644 116.17 106.685 137.517 73.7359 137.517V137.515ZM69.2625 6.05813C36.5797 6.05813 7.86619 27.2102 1.88776 57.9691C-1.43601 75.0649 2.67836 92.5468 13.4711 107.193C24.2693 121.846 40.4583 131.906 59.0555 135.522C63.9949 136.481 68.9107 136.944 73.7359 136.944C106.419 136.944 135.132 115.791 141.111 85.0325C147.972 49.7313 122.327 14.9415 83.9429 7.48157C79.0035 6.52234 74.0877 6.05995 69.2625 6.05995V6.05813Z" fill="#FFF7E8"/>
<path d="M71.5 143C32.0754 143 0 110.925 0 71.5C0 32.0754 32.0754 0 71.5 0C110.925 0 143 32.0754 143 71.5C143 110.925 110.925 143 71.5 143ZM71.5 0.598387C32.4036 0.596574 0.596574 32.4036 0.596574 71.5C0.596574 110.596 32.4036 142.403 71.5 142.403C110.596 142.403 142.403 110.596 142.403 71.5C142.403 32.4036 110.596 0.596574 71.5 0.596574V0.598387Z" fill="#FFF7E8"/>
</g>
</svg>
