<svg width="987" height="278" viewBox="0 0 987 278" fill="none" xmlns="http://www.w3.org/2000/svg">
<path d="M108.469 74.25C108.469 79.6146 107.323 84.5104 105.031 88.9375C102.792 93.3125 99.4062 97.0885 94.875 100.266C90.3958 103.391 84.7708 105.812 78 107.531C71.2292 109.25 63.3385 110.109 54.3281 110.109C45.3177 110.109 37.4271 109.25 30.6562 107.531C23.8854 105.812 18.2344 103.391 13.7031 100.266C9.17188 97.0885 5.76042 93.3125 3.46875 88.9375C1.22917 84.5104 0.109375 79.6146 0.109375 74.25V0.65625H9.875V75.0312C9.875 78.625 10.8125 82.0365 12.6875 85.2656C14.6146 88.4427 17.4531 91.2292 21.2031 93.625C24.9531 96.0208 29.5885 97.9219 35.1094 99.3281C40.6302 100.734 47.0365 101.438 54.3281 101.438C61.5677 101.438 67.9479 100.734 73.4688 99.3281C78.9896 97.9219 83.625 96.0208 87.375 93.625C91.125 91.2292 93.9375 88.4427 95.8125 85.2656C97.7396 82.0365 98.7031 78.625 98.7031 75.0312V0.65625H108.469V74.25ZM146.903 108V0.65625H156.669V108H146.903ZM366.819 74.25C366.819 79.6146 365.673 84.5104 363.381 88.9375C361.142 93.3125 357.756 97.0885 353.225 100.266C348.746 103.391 343.121 105.812 336.35 107.531C329.579 109.25 321.689 110.109 312.678 110.109C303.668 110.109 295.777 109.25 289.006 107.531C282.235 105.812 276.584 103.391 272.053 100.266C267.522 97.0885 264.11 93.3125 261.819 88.9375C259.579 84.5104 258.459 79.6146 258.459 74.25V0.65625H268.225V75.0312C268.225 78.625 269.163 82.0365 271.038 85.2656C272.965 88.4427 275.803 91.2292 279.553 93.625C283.303 96.0208 287.939 97.9219 293.459 99.3281C298.98 100.734 305.386 101.438 312.678 101.438C319.918 101.438 326.298 100.734 331.819 99.3281C337.34 97.9219 341.975 96.0208 345.725 93.625C349.475 91.2292 352.288 88.4427 354.163 85.2656C356.09 82.0365 357.053 78.625 357.053 75.0312V0.65625H366.819V74.25ZM452.987 59.4844L406.737 108H394.394L446.894 52.9219L396.972 0.65625H409.316L452.987 46.5938L496.816 0.65625H509.159L459.237 52.9219L511.659 108H499.394L452.987 59.4844ZM1.04688 275V167.656H90.5V176.797H11.6719V213.75H86.5156V222.812H11.6719V265.859H91.6719V275H1.04688ZM228.075 275L134.794 180.469V275H125.028V167.656H135.809L229.091 262.5V167.656H238.7V275H228.075ZM341.275 165.703C346.223 165.703 350.832 165.964 355.103 166.484C359.374 166.953 363.462 167.656 367.369 168.594C371.275 169.479 375.077 170.573 378.775 171.875C382.473 173.125 386.197 174.531 389.947 176.094V187.969C386.978 186.094 383.801 184.323 380.416 182.656C377.082 180.99 373.462 179.531 369.556 178.281C365.702 177.031 361.535 176.042 357.056 175.312C352.629 174.583 347.864 174.219 342.759 174.219C332.343 174.219 323.254 175.312 315.494 177.5C307.733 179.688 301.275 182.812 296.119 186.875C290.962 190.938 287.082 195.885 284.478 201.719C281.926 207.552 280.65 214.115 280.65 221.406C280.65 228.229 281.9 234.531 284.4 240.312C286.952 246.042 290.78 250.99 295.884 255.156C301.041 259.323 307.473 262.578 315.181 264.922C322.89 267.266 331.926 268.438 342.291 268.438C346.353 268.438 350.364 268.281 354.322 267.969C358.332 267.656 362.108 267.266 365.65 266.797C369.192 266.276 372.421 265.729 375.337 265.156C378.254 264.531 380.728 263.906 382.759 263.281V230.703H339.087V221.562H392.525V268.75C388.671 270.104 384.765 271.302 380.806 272.344C376.9 273.385 372.837 274.271 368.619 275C364.452 275.677 360.103 276.198 355.572 276.562C351.093 276.927 346.379 277.109 341.431 277.109C331.327 277.109 321.952 275.99 313.306 273.75C304.66 271.458 297.16 268.021 290.806 263.438C284.504 258.802 279.556 252.995 275.962 246.016C272.369 239.036 270.572 230.833 270.572 221.406C270.572 215.104 271.405 209.375 273.072 204.219C274.739 199.01 277.082 194.349 280.103 190.234C283.176 186.068 286.848 182.448 291.119 179.375C295.442 176.302 300.207 173.776 305.416 171.797C310.676 169.766 316.327 168.255 322.369 167.266C328.41 166.224 334.712 165.703 341.275 165.703ZM426.897 275V167.656H436.663V275H426.897ZM579.081 275L485.8 180.469V275H476.034V167.656H486.816L580.097 262.5V167.656H589.706V275H579.081ZM629.078 275V167.656H718.531V176.797H639.703V213.75H714.547V222.812H639.703V265.859H719.703V275H629.078ZM753.059 275V167.656H842.513V176.797H763.684V213.75H838.528V222.812H763.684V265.859H843.684V275H753.059ZM886.806 229.062V275H877.041V167.656H930.478C938.655 167.656 945.66 168.307 951.494 169.609C957.327 170.859 962.093 172.786 965.791 175.391C969.541 177.943 972.275 181.146 973.994 185C975.713 188.854 976.572 193.359 976.572 198.516C976.572 206.536 974.463 212.969 970.244 217.812C966.025 222.604 959.228 225.885 949.853 227.656L986.494 275H974.228L939.619 228.75C938.16 228.854 936.676 228.932 935.166 228.984C933.655 229.036 932.093 229.062 930.478 229.062H886.806ZM966.494 198.516C966.494 193.932 965.686 190.234 964.072 187.422C962.457 184.557 959.827 182.344 956.181 180.781C952.535 179.219 947.744 178.177 941.806 177.656C935.921 177.083 928.681 176.797 920.088 176.797H886.806V219.922H919.775C928.369 219.922 935.634 219.688 941.572 219.219C947.509 218.698 952.327 217.682 956.025 216.172C959.723 214.609 962.379 212.448 963.994 209.688C965.66 206.875 966.494 203.151 966.494 198.516Z" fill="#FFF7E8"/>
</svg>
